# xmcd
#
# Track frame offsets: 
#        150
#        17595
#        34685
#        53480
#        66328
#        83230
#        105890
#        119538
#        141930
#        153930
#        169010
#        184988
#        198945
#
# Disc length: 2831 seconds
#
# Revision: 5
# Processed by: cddbd v1.5.2PL0 Copyright (c) Steve Scherf et al.
# Submitted via: ExactAudioCopy v1.0b3
#
DISCID=a40b0d0d
DTITLE=Price, Toni - Low Down And Up
DYEAR=1999
DGENRE=Blues
TTITLE0=Out The Front Door
TTITLE1=Foolin' Around
TTITLE2=Comes Love
TTITLE3=Don't You Think I Feel It Too?
TTITLE4=Anything
TTITLE5=Remember Me?
TTITLE6=Loserville Blues
TTITLE7=Feel Like Cryin'
TTITLE8=Lonesome Wind
TTITLE9=Low Down And Up
TTITLE10=Rusty Old Red River
TTITLE11=Wishing Well
TTITLE12=Why Is Love Like That?
EXTD=YEAR: 1999
EXTT0=
EXTT1=
EXTT2=
EXTT3=
EXTT4=
EXTT5=
EXTT6=
EXTT7=
EXTT8=
EXTT9=
EXTT10=
EXTT11=
EXTT12=
PLAYORDER=
